# xmcd CD database file
#
# Track frame offsets:
#	150
#	12158
#	24838
#	40305
#	54778
#	69160
#	83150
#	98118
#	113523
#	125510
#
# Disc length: 1879 seconds
#
# Revision: 3
# Processed by: cddbd v1.5.2PL0 Copyright (c) Steve Scherf et al.
# Submitted via: CDex 1.60beta1
#
DISCID=6907550a
DTITLE=Rick Trevino - Dos Mundos
DYEAR=1993
DGENRE=Country
TTITLE0=Salte De Espalda
TTITLE1=No Perdi La Razon
TTITLE2=Tal Como Ayer
TTITLE3=Bastante Cordon
TTITLE4=Un Momento Alla
TTITLE5=Change For A Quarter Moon
TTITLE6=Podria Volar
TTITLE7=Si Quieres Conmigo
TTITLE8=A Quarter At A Time
TTITLE9=Si Tu Ves A Un Hombre Llorar
EXTD=YEAR: 1993
EXTT0=
EXTT1=
EXTT2=
EXTT3=
EXTT4=
EXTT5=
EXTT6=
EXTT7=
EXTT8=
EXTT9=
PLAYORDER=
